<svg width="16" height="16" viewBox="0 0 16 16" fill="none" xmlns="http://www.w3.org/2000/svg">
<path fill-rule="evenodd" clip-rule="evenodd" d="M7.9212 0C10.4236 0 12.4729 2.0417 12.4729 4.5347C12.4729 7.0478 10.4236 9.0698 7.9212 9.0698C5.399 9.0698 3.34979 7.0478 3.34979 4.5347C3.34979 2.0417 5.399 0 7.9212 0ZM4.9852 9.8355H11.0344C13.7734 9.8355 16 12.0539 16 14.7826V15.9999H14.9951V14.7826C14.9951 12.6232 13.2217 10.8365 11.0344 10.8365H4.9852C2.79801 10.8365 1.0246 12.6232 1.0246 14.7826V15.9999H0V14.7826C0 12.0539 2.2462 9.8355 4.9852 9.8355ZM7.9212 1.0014C5.9507 1.0014 4.3744 2.5914 4.3744 4.5347C4.3744 6.4981 5.95069 8.0684 7.9212 8.0684C9.8719 8.0684 11.4483 6.4981 11.4483 4.5347C11.4483 2.5914 9.8719 1.0014 7.9212 1.0014Z" fill="white"/>
</svg>
