<svg width="86" height="86" viewBox="0 0 86 86" fill="none" xmlns="http://www.w3.org/2000/svg">
<circle cx="43" cy="43" r="42.5" stroke="#E3D3C3" stroke-dasharray="1 5"/>
<mask id="path-2-inside-1" fill="white">
<path d="M48.4056 28.1515C48.0952 28.3059 47.746 28.4989 47.3192 28.8848C46.0776 29.9656 45.3793 31.5481 45.3793 33.1692V54.0119C45.3793 54.0505 45.3405 54.0891 45.3405 54.1663C45.3405 55.3628 46.3104 56.3278 47.5132 56.3278C48.2504 56.3278 48.91 55.9418 49.298 55.4014C49.686 55.9804 50.3456 56.3278 51.0828 56.3278C51.82 56.3278 52.4796 55.9418 52.8676 55.4014C53.2556 55.9804 53.9152 56.3278 54.6524 56.3278C55.8552 56.3278 56.8252 55.3628 56.8252 54.1663V33.1692C56.8252 31.5867 56.1656 30.0428 55.0016 28.962C54.5748 28.5375 54.148 28.3445 53.8764 28.1901C53.4108 27.9585 53.2944 27.8813 53.2944 27.148V26.4532C53.76 26.4146 54.148 26.0286 54.148 25.5269V23.4426C54.148 22.9408 53.7212 22.5162 53.2168 22.5162H49.2592C48.7548 22.5162 48.328 22.9408 48.328 23.4426V25.5269C48.328 25.9514 48.6384 26.3374 49.0264 26.4146V26.955C49.0652 27.8041 48.9488 27.8813 48.4056 28.1515ZM56.1268 48.5696H46.1552V34.1727H56.1268V48.5696ZM54.73 55.5558C53.954 55.5558 53.3332 54.9382 53.3332 54.1663C53.3332 53.9347 53.178 53.7803 52.9452 53.7803C52.7124 53.7803 52.5572 53.9347 52.5572 54.1663C52.5572 54.9382 51.9364 55.5558 51.1604 55.5558C50.3844 55.5558 49.7636 54.9382 49.7636 54.1663C49.7636 53.9347 49.6084 53.7803 49.3756 53.7803C49.1428 53.7803 48.9876 53.9347 48.9876 54.1663C48.9876 54.9382 48.3668 55.5558 47.5908 55.5558C46.8536 55.5558 46.2716 55.0154 46.194 54.2821C46.194 54.2435 46.2328 54.2049 46.2328 54.1663V49.3416H56.2044V54.1277C56.1268 54.9382 55.506 55.5558 54.73 55.5558ZM53.6048 28.8848C53.8764 29.0392 54.1868 29.1936 54.5748 29.5024C55.5836 30.4287 56.1656 31.7411 56.1656 33.1306V33.3622H46.1552V33.1306C46.1552 31.7025 46.776 30.3516 47.8236 29.4252C48.1728 29.1164 48.4832 28.9234 48.7548 28.8076C49.4144 28.4603 49.8024 28.1901 49.8024 26.955V26.4532H52.5184V27.148C52.5572 28.3059 52.9452 28.5761 53.6048 28.8848ZM50.8112 25.6812V23.2882H51.82V25.6812H50.8112ZM53.4108 23.4426V25.5269C53.4108 25.604 53.3332 25.6812 53.2556 25.6812H52.5572V23.2882H53.2556C53.372 23.2882 53.4108 23.3654 53.4108 23.4426ZM49.1428 23.4426C49.1428 23.3654 49.2204 23.2882 49.298 23.2882H50.0352V25.6812H49.298C49.2204 25.6812 49.1428 25.604 49.1428 25.5269V23.4426Z"/>
<path d="M30.3219 36.572V55.0543C30.3219 55.8464 30.9677 56.4877 31.7654 56.4877H40.1223C40.92 56.4877 41.5657 55.8464 41.5657 55.0543V36.572C41.5657 36.0816 41.3378 35.6667 40.9959 34.95C40.4262 33.8562 39.4385 31.9702 38.223 27.9343C38.4129 27.7457 38.5649 27.4816 38.5649 27.1799V27.029C38.5649 26.9536 38.5649 26.8404 38.5269 26.765C38.7168 26.7273 38.8687 26.5764 38.8687 26.3878V25.3694C38.8687 24.9545 38.5269 24.6527 38.147 24.6527H33.7786C33.3608 24.6527 33.0569 24.9922 33.0569 25.3694V26.4255C33.0569 26.6141 33.2089 26.765 33.3988 26.8027C33.3608 26.8781 33.3608 26.9913 33.3608 27.0667V27.2176C33.3608 27.5194 33.4748 27.7834 33.7027 27.972C32.6011 31.8571 31.6134 33.743 31.0057 34.8369C30.5878 35.5535 30.3219 36.0439 30.3219 36.572ZM34.0825 27.2176V27.0667C34.0825 26.9159 34.1965 26.8027 34.3484 26.8027H37.5392C37.6912 26.8027 37.8051 26.9159 37.8051 27.0667V27.2176C37.8051 27.3685 37.6912 27.4816 37.5392 27.4816H34.3484C34.1965 27.4816 34.0825 27.3685 34.0825 27.2176ZM38.109 25.3694V26.0483H33.7786V25.3694H38.109ZM31.0816 36.572C31.0816 36.2325 31.3096 35.8553 31.6514 35.1764C32.2592 34.0448 33.3228 32.1211 34.4244 28.1983H37.5392C38.7928 32.272 39.7804 34.1579 40.3502 35.2895C40.6921 35.9307 40.844 36.2702 40.844 36.572V55.0543C40.844 55.4315 40.5401 55.7333 40.1603 55.7333H31.8034C31.4235 55.7333 31.1196 55.4315 31.1196 55.0543V36.572H31.0816Z"/>
<path d="M35.5778 49.4215C35.6549 49.5311 35.7705 49.6042 35.9246 49.6042C36.0788 49.6042 36.1944 49.5311 36.2714 49.4215L39.7782 43.7551C39.8552 43.6455 39.8552 43.4992 39.7782 43.3896L36.2714 37.7232C36.1173 37.5039 35.7319 37.5039 35.6163 37.7232L32.1096 43.3896C32.0326 43.4992 32.0326 43.6455 32.1096 43.7551L35.5778 49.4215ZM35.8861 38.6371L38.9304 43.5723L35.8861 48.5075L32.8418 43.5723L35.8861 38.6371Z"/>
</mask>
<path d="M48.4056 28.1515C48.0952 28.3059 47.746 28.4989 47.3192 28.8848C46.0776 29.9656 45.3793 31.5481 45.3793 33.1692V54.0119C45.3793 54.0505 45.3405 54.0891 45.3405 54.1663C45.3405 55.3628 46.3104 56.3278 47.5132 56.3278C48.2504 56.3278 48.91 55.9418 49.298 55.4014C49.686 55.9804 50.3456 56.3278 51.0828 56.3278C51.82 56.3278 52.4796 55.9418 52.8676 55.4014C53.2556 55.9804 53.9152 56.3278 54.6524 56.3278C55.8552 56.3278 56.8252 55.3628 56.8252 54.1663V33.1692C56.8252 31.5867 56.1656 30.0428 55.0016 28.962C54.5748 28.5375 54.148 28.3445 53.8764 28.1901C53.4108 27.9585 53.2944 27.8813 53.2944 27.148V26.4532C53.76 26.4146 54.148 26.0286 54.148 25.5269V23.4426C54.148 22.9408 53.7212 22.5162 53.2168 22.5162H49.2592C48.7548 22.5162 48.328 22.9408 48.328 23.4426V25.5269C48.328 25.9514 48.6384 26.3374 49.0264 26.4146V26.955C49.0652 27.8041 48.9488 27.8813 48.4056 28.1515ZM56.1268 48.5696H46.1552V34.1727H56.1268V48.5696ZM54.73 55.5558C53.954 55.5558 53.3332 54.9382 53.3332 54.1663C53.3332 53.9347 53.178 53.7803 52.9452 53.7803C52.7124 53.7803 52.5572 53.9347 52.5572 54.1663C52.5572 54.9382 51.9364 55.5558 51.1604 55.5558C50.3844 55.5558 49.7636 54.9382 49.7636 54.1663C49.7636 53.9347 49.6084 53.7803 49.3756 53.7803C49.1428 53.7803 48.9876 53.9347 48.9876 54.1663C48.9876 54.9382 48.3668 55.5558 47.5908 55.5558C46.8536 55.5558 46.2716 55.0154 46.194 54.2821C46.194 54.2435 46.2328 54.2049 46.2328 54.1663V49.3416H56.2044V54.1277C56.1268 54.9382 55.506 55.5558 54.73 55.5558ZM53.6048 28.8848C53.8764 29.0392 54.1868 29.1936 54.5748 29.5024C55.5836 30.4287 56.1656 31.7411 56.1656 33.1306V33.3622H46.1552V33.1306C46.1552 31.7025 46.776 30.3516 47.8236 29.4252C48.1728 29.1164 48.4832 28.9234 48.7548 28.8076C49.4144 28.4603 49.8024 28.1901 49.8024 26.955V26.4532H52.5184V27.148C52.5572 28.3059 52.9452 28.5761 53.6048 28.8848ZM50.8112 25.6812V23.2882H51.82V25.6812H50.8112ZM53.4108 23.4426V25.5269C53.4108 25.604 53.3332 25.6812 53.2556 25.6812H52.5572V23.2882H53.2556C53.372 23.2882 53.4108 23.3654 53.4108 23.4426ZM49.1428 23.4426C49.1428 23.3654 49.2204 23.2882 49.298 23.2882H50.0352V25.6812H49.298C49.2204 25.6812 49.1428 25.604 49.1428 25.5269V23.4426Z" fill="#E3D3C3"/>
<path d="M30.3219 36.572V55.0543C30.3219 55.8464 30.9677 56.4877 31.7654 56.4877H40.1223C40.92 56.4877 41.5657 55.8464 41.5657 55.0543V36.572C41.5657 36.0816 41.3378 35.6667 40.9959 34.95C40.4262 33.8562 39.4385 31.9702 38.223 27.9343C38.4129 27.7457 38.5649 27.4816 38.5649 27.1799V27.029C38.5649 26.9536 38.5649 26.8404 38.5269 26.765C38.7168 26.7273 38.8687 26.5764 38.8687 26.3878V25.3694C38.8687 24.9545 38.5269 24.6527 38.147 24.6527H33.7786C33.3608 24.6527 33.0569 24.9922 33.0569 25.3694V26.4255C33.0569 26.6141 33.2089 26.765 33.3988 26.8027C33.3608 26.8781 33.3608 26.9913 33.3608 27.0667V27.2176C33.3608 27.5194 33.4748 27.7834 33.7027 27.972C32.6011 31.8571 31.6134 33.743 31.0057 34.8369C30.5878 35.5535 30.3219 36.0439 30.3219 36.572ZM34.0825 27.2176V27.0667C34.0825 26.9159 34.1965 26.8027 34.3484 26.8027H37.5392C37.6912 26.8027 37.8051 26.9159 37.8051 27.0667V27.2176C37.8051 27.3685 37.6912 27.4816 37.5392 27.4816H34.3484C34.1965 27.4816 34.0825 27.3685 34.0825 27.2176ZM38.109 25.3694V26.0483H33.7786V25.3694H38.109ZM31.0816 36.572C31.0816 36.2325 31.3096 35.8553 31.6514 35.1764C32.2592 34.0448 33.3228 32.1211 34.4244 28.1983H37.5392C38.7928 32.272 39.7804 34.1579 40.3502 35.2895C40.6921 35.9307 40.844 36.2702 40.844 36.572V55.0543C40.844 55.4315 40.5401 55.7333 40.1603 55.7333H31.8034C31.4235 55.7333 31.1196 55.4315 31.1196 55.0543V36.572H31.0816Z" fill="#E3D3C3"/>
<path d="M35.5778 49.4215C35.6549 49.5311 35.7705 49.6042 35.9246 49.6042C36.0788 49.6042 36.1944 49.5311 36.2714 49.4215L39.7782 43.7551C39.8552 43.6455 39.8552 43.4992 39.7782 43.3896L36.2714 37.7232C36.1173 37.5039 35.7319 37.5039 35.6163 37.7232L32.1096 43.3896C32.0326 43.4992 32.0326 43.6455 32.1096 43.7551L35.5778 49.4215ZM35.8861 38.6371L38.9304 43.5723L35.8861 48.5075L32.8418 43.5723L35.8861 38.6371Z" fill="#E3D3C3"/>
<path d="M48.4056 28.1515C48.0952 28.3059 47.746 28.4989 47.3192 28.8848C46.0776 29.9656 45.3793 31.5481 45.3793 33.1692V54.0119C45.3793 54.0505 45.3405 54.0891 45.3405 54.1663C45.3405 55.3628 46.3104 56.3278 47.5132 56.3278C48.2504 56.3278 48.91 55.9418 49.298 55.4014C49.686 55.9804 50.3456 56.3278 51.0828 56.3278C51.82 56.3278 52.4796 55.9418 52.8676 55.4014C53.2556 55.9804 53.9152 56.3278 54.6524 56.3278C55.8552 56.3278 56.8252 55.3628 56.8252 54.1663V33.1692C56.8252 31.5867 56.1656 30.0428 55.0016 28.962C54.5748 28.5375 54.148 28.3445 53.8764 28.1901C53.4108 27.9585 53.2944 27.8813 53.2944 27.148V26.4532C53.76 26.4146 54.148 26.0286 54.148 25.5269V23.4426C54.148 22.9408 53.7212 22.5162 53.2168 22.5162H49.2592C48.7548 22.5162 48.328 22.9408 48.328 23.4426V25.5269C48.328 25.9514 48.6384 26.3374 49.0264 26.4146V26.955C49.0652 27.8041 48.9488 27.8813 48.4056 28.1515ZM56.1268 48.5696H46.1552V34.1727H56.1268V48.5696ZM54.73 55.5558C53.954 55.5558 53.3332 54.9382 53.3332 54.1663C53.3332 53.9347 53.178 53.7803 52.9452 53.7803C52.7124 53.7803 52.5572 53.9347 52.5572 54.1663C52.5572 54.9382 51.9364 55.5558 51.1604 55.5558C50.3844 55.5558 49.7636 54.9382 49.7636 54.1663C49.7636 53.9347 49.6084 53.7803 49.3756 53.7803C49.1428 53.7803 48.9876 53.9347 48.9876 54.1663C48.9876 54.9382 48.3668 55.5558 47.5908 55.5558C46.8536 55.5558 46.2716 55.0154 46.194 54.2821C46.194 54.2435 46.2328 54.2049 46.2328 54.1663V49.3416H56.2044V54.1277C56.1268 54.9382 55.506 55.5558 54.73 55.5558ZM53.6048 28.8848C53.8764 29.0392 54.1868 29.1936 54.5748 29.5024C55.5836 30.4287 56.1656 31.7411 56.1656 33.1306V33.3622H46.1552V33.1306C46.1552 31.7025 46.776 30.3516 47.8236 29.4252C48.1728 29.1164 48.4832 28.9234 48.7548 28.8076C49.4144 28.4603 49.8024 28.1901 49.8024 26.955V26.4532H52.5184V27.148C52.5572 28.3059 52.9452 28.5761 53.6048 28.8848ZM50.8112 25.6812V23.2882H51.82V25.6812H50.8112ZM53.4108 23.4426V25.5269C53.4108 25.604 53.3332 25.6812 53.2556 25.6812H52.5572V23.2882H53.2556C53.372 23.2882 53.4108 23.3654 53.4108 23.4426ZM49.1428 23.4426C49.1428 23.3654 49.2204 23.2882 49.298 23.2882H50.0352V25.6812H49.298C49.2204 25.6812 49.1428 25.604 49.1428 25.5269V23.4426Z" stroke="#E3D3C3" stroke-width="1.60626" mask="url(#path-2-inside-1)"/>
<path d="M30.3219 36.572V55.0543C30.3219 55.8464 30.9677 56.4877 31.7654 56.4877H40.1223C40.92 56.4877 41.5657 55.8464 41.5657 55.0543V36.572C41.5657 36.0816 41.3378 35.6667 40.9959 34.95C40.4262 33.8562 39.4385 31.9702 38.223 27.9343C38.4129 27.7457 38.5649 27.4816 38.5649 27.1799V27.029C38.5649 26.9536 38.5649 26.8404 38.5269 26.765C38.7168 26.7273 38.8687 26.5764 38.8687 26.3878V25.3694C38.8687 24.9545 38.5269 24.6527 38.147 24.6527H33.7786C33.3608 24.6527 33.0569 24.9922 33.0569 25.3694V26.4255C33.0569 26.6141 33.2089 26.765 33.3988 26.8027C33.3608 26.8781 33.3608 26.9913 33.3608 27.0667V27.2176C33.3608 27.5194 33.4748 27.7834 33.7027 27.972C32.6011 31.8571 31.6134 33.743 31.0057 34.8369C30.5878 35.5535 30.3219 36.0439 30.3219 36.572ZM34.0825 27.2176V27.0667C34.0825 26.9159 34.1965 26.8027 34.3484 26.8027H37.5392C37.6912 26.8027 37.8051 26.9159 37.8051 27.0667V27.2176C37.8051 27.3685 37.6912 27.4816 37.5392 27.4816H34.3484C34.1965 27.4816 34.0825 27.3685 34.0825 27.2176ZM38.109 25.3694V26.0483H33.7786V25.3694H38.109ZM31.0816 36.572C31.0816 36.2325 31.3096 35.8553 31.6514 35.1764C32.2592 34.0448 33.3228 32.1211 34.4244 28.1983H37.5392C38.7928 32.272 39.7804 34.1579 40.3502 35.2895C40.6921 35.9307 40.844 36.2702 40.844 36.572V55.0543C40.844 55.4315 40.5401 55.7333 40.1603 55.7333H31.8034C31.4235 55.7333 31.1196 55.4315 31.1196 55.0543V36.572H31.0816Z" stroke="#E3D3C3" stroke-width="1.60626" mask="url(#path-2-inside-1)"/>
<path d="M35.5778 49.4215C35.6549 49.5311 35.7705 49.6042 35.9246 49.6042C36.0788 49.6042 36.1944 49.5311 36.2714 49.4215L39.7782 43.7551C39.8552 43.6455 39.8552 43.4992 39.7782 43.3896L36.2714 37.7232C36.1173 37.5039 35.7319 37.5039 35.6163 37.7232L32.1096 43.3896C32.0326 43.4992 32.0326 43.6455 32.1096 43.7551L35.5778 49.4215ZM35.8861 38.6371L38.9304 43.5723L35.8861 48.5075L32.8418 43.5723L35.8861 38.6371Z" stroke="#E3D3C3" stroke-width="1.60626" mask="url(#path-2-inside-1)"/>
</svg>
