<svg width="86" height="86" viewBox="0 0 86 86" fill="none" xmlns="http://www.w3.org/2000/svg">
<mask id="path-1-inside-1" fill="white">
<path d="M39.0805 43.4027C39.2599 43.4027 39.4054 43.258 39.4054 43.0795C39.4054 42.901 39.2599 42.7563 39.0805 42.7563C38.9011 42.7563 38.7556 42.901 38.7556 43.0795C38.7556 43.258 38.9011 43.4027 39.0805 43.4027Z"/>
</mask>
<path d="M39.0805 43.4027C39.2599 43.4027 39.4054 43.258 39.4054 43.0795C39.4054 42.901 39.2599 42.7563 39.0805 42.7563C38.9011 42.7563 38.7556 42.901 38.7556 43.0795C38.7556 43.258 38.9011 43.4027 39.0805 43.4027Z" fill="#E3D3C3"/>
<path d="M38.7556 43.0795C38.7556 42.8959 38.9043 42.7529 39.0805 42.7529V44.0525C39.6156 44.0525 40.0552 43.6201 40.0552 43.0795H38.7556ZM39.0805 42.7529C39.2567 42.7529 39.4054 42.8959 39.4054 43.0795H38.1058C38.1058 43.6201 38.5454 44.0525 39.0805 44.0525V42.7529ZM39.4054 43.0795C39.4054 43.2631 39.2567 43.4061 39.0805 43.4061V42.1066C38.5454 42.1066 38.1058 42.539 38.1058 43.0795H39.4054ZM39.0805 43.4061C38.9043 43.4061 38.7556 43.2631 38.7556 43.0795H40.0552C40.0552 42.539 39.6156 42.1066 39.0805 42.1066V43.4061Z" fill="#E3D3C3" mask="url(#path-1-inside-1)"/>
<path d="M39.081 40.4956C39.081 40.4956 39.0811 40.4956 39.0811 40.4956C39.0811 40.4957 39.0812 40.4957 39.0812 40.4957C39.0812 40.4957 39.0811 40.4957 39.0811 40.4956C39.0811 40.4956 39.0812 40.4956 39.0812 40.4956C39.0812 40.4956 39.0811 40.4956 39.081 40.4955C39.0809 40.4955 39.0809 40.4955 39.081 40.4956ZM39.081 40.4956C39.0809 40.4956 39.0807 40.4955 39.0805 40.4955C39.0803 40.4955 39.0801 40.4956 39.08 40.4956M39.081 40.4956L39.08 40.4956M39.08 40.4956C39.0801 40.4955 39.0802 40.4955 39.0801 40.4955C39.0799 40.4956 39.0798 40.4956 39.0798 40.4956C39.0798 40.4956 39.0799 40.4956 39.08 40.4956C39.0799 40.4957 39.0799 40.4957 39.0799 40.4957C39.0799 40.4957 39.0799 40.4957 39.0799 40.4956C39.08 40.4956 39.08 40.4956 39.08 40.4956ZM39.0805 40.4939C39.0805 40.4939 39.0805 40.4939 39.0805 40.4939L39.081 40.4922C39.0809 40.4922 39.0807 40.4922 39.0805 40.4922C39.0803 40.4922 39.0801 40.4922 39.08 40.4922C39.08 40.4922 39.08 40.4922 39.0799 40.4921C39.0798 40.492 39.0798 40.492 39.08 40.4922C39.0799 40.4922 39.0798 40.4922 39.0798 40.4922C39.0798 40.4922 39.0799 40.4922 39.08 40.4922C39.08 40.4923 39.0801 40.4924 39.0801 40.4926C39.0804 40.4932 39.0805 40.4937 39.0805 40.4939Z" fill="#E3D3C3" stroke="#E3D3C3" stroke-width="0.649778"/>
<path d="M40.3802 38.878C40.3802 38.8785 40.3802 38.8791 40.3802 38.8796C40.3802 38.8791 40.3802 38.8785 40.3802 38.878C40.3802 38.8775 40.3802 38.8769 40.3802 38.8764C40.3802 38.8769 40.3802 38.8775 40.3802 38.878Z" fill="#E3D3C3" stroke="#E3D3C3" stroke-width="0.649778"/>
<path d="M41.6796 42.1099C41.6796 42.1104 41.6796 42.1109 41.6796 42.1115C41.6796 42.1109 41.6796 42.1104 41.6796 42.1099C41.6796 42.1093 41.6796 42.1088 41.6796 42.1082C41.6796 42.1088 41.6796 42.1093 41.6796 42.1099Z" fill="#E3D3C3" stroke="#E3D3C3" stroke-width="0.649778"/>
<path d="M42.9793 44.0491C42.9793 44.0497 42.9793 44.0502 42.9793 44.0508C42.9793 44.0502 42.9793 44.0497 42.9793 44.0491C42.9793 44.0486 42.9793 44.0481 42.9793 44.0475C42.9793 44.0481 42.9793 44.0486 42.9793 44.0491Z" fill="#E3D3C3" stroke="#E3D3C3" stroke-width="0.649778"/>
<path d="M32.6819 22.7183C30.8236 23.2531 29.854 25.6888 30.5174 28.1588C31.1809 30.6289 33.224 32.1979 35.0829 31.663C36.9411 31.1281 37.9107 28.6925 37.2473 26.2224C36.9233 25.0141 36.2688 24.0219 35.4669 23.3855L35.5406 25.0363L34.8486 25.7146L35.0876 26.604L34.4819 27.6036L33.5046 25.7817L33.9046 24.4953L32.6819 22.7183Z" stroke="#E3D3C3" stroke-width="0.649778" stroke-miterlimit="10" stroke-linecap="round" stroke-linejoin="round"/>
<path d="M40.7051 29.8285C40.7051 29.8285 40.7051 27.6375 40.7051 26.3589C40.7051 25.0803 40.2614 22.4162 37.4562 19.4862" stroke="#E3D3C3" stroke-width="0.649778" stroke-miterlimit="10" stroke-linecap="round" stroke-linejoin="round"/>
<path d="M43.9539 29.8285C43.9539 29.8285 43.9539 27.6375 43.9539 26.3589C43.9539 25.0803 44.3975 22.4162 47.2028 19.4862" stroke="#E3D3C3" stroke-width="0.649778" stroke-miterlimit="10" stroke-linecap="round" stroke-linejoin="round"/>
<path d="M34.8589 31.7676C34.8589 31.7676 34.7232 34.4704 36.8064 34.9996" stroke="#E3D3C3" stroke-width="0.649778" stroke-miterlimit="10" stroke-linecap="round" stroke-linejoin="round"/>
<path d="M52.4112 22.7183C54.4384 23.2531 55.4961 25.6888 54.7723 28.1588C54.0486 30.6289 51.8197 32.1979 49.7919 31.663C47.7647 31.1281 46.707 28.6925 47.4307 26.2224C47.7842 25.0141 48.4981 24.0219 49.373 23.3855L49.2926 25.0363L50.0474 25.7146L49.7867 26.604L50.4475 27.6036L51.5137 25.7817L51.0772 24.4953L52.4112 22.7183Z" stroke="#E3D3C3" stroke-width="0.649778" stroke-miterlimit="10" stroke-linecap="round" stroke-linejoin="round"/>
<path d="M50.4493 31.7676C50.4493 31.7676 50.6301 34.4704 47.8525 34.9996" stroke="#E3D3C3" stroke-width="0.649778" stroke-miterlimit="10" stroke-linecap="round" stroke-linejoin="round"/>
<path d="M48.5024 38.3313C48.5024 45.18 45.8845 45.9883 42.6544 45.9883C39.4243 45.9883 36.8064 45.103 36.8064 38.3313C36.8064 33.6353 39.4243 29.8284 42.6544 29.8284C45.8845 29.8284 48.5024 33.6353 48.5024 38.3313Z" stroke="#E3D3C3" stroke-width="0.649778" stroke-miterlimit="10" stroke-linecap="round" stroke-linejoin="round"/>
<path d="M41.7627 52.4783C41.4567 52.4783 41.1739 52.3916 40.9262 52.2512C40.7519 52.472 40.644 52.7465 40.644 53.049C40.644 53.767 41.2291 54.3496 41.9515 54.3496H43.1893C43.911 54.3496 44.4967 53.7676 44.4967 53.049C44.4967 52.7465 44.3889 52.472 44.2145 52.2512C43.9662 52.3916 43.6834 52.4783 43.378 52.4783H41.7627Z" stroke="#E3D3C3" stroke-width="0.649778" stroke-miterlimit="10" stroke-linecap="round" stroke-linejoin="round"/>
<path d="M41.4917 49.8472C41.1412 49.8472 40.8076 49.7761 40.5041 49.6476C40.2294 49.9489 40.0576 50.3443 40.0576 50.7828C40.0576 51.7198 40.8207 52.4789 41.7626 52.4789H43.3772C44.3191 52.4789 45.0822 51.7198 45.0822 50.7828C45.0822 50.3443 44.9104 49.9482 44.6357 49.6476C44.3323 49.7761 43.9987 49.8472 43.6481 49.8472H41.4917Z" stroke="#E3D3C3" stroke-width="0.649778" stroke-miterlimit="10" stroke-linecap="round" stroke-linejoin="round"/>
<path d="M39.6658 45.6004C39.2331 46.0513 38.9641 46.6595 38.9641 47.332C38.9641 48.7205 40.096 49.8464 41.4918 49.8464H43.6476C45.0435 49.8464 46.1753 48.7205 46.1753 47.332C46.1753 46.6458 45.8975 46.0258 45.4498 45.5717C44.5819 45.9353 43.5768 46.0258 42.5045 46.0258C41.4755 46.0264 40.5086 45.9359 39.6658 45.6004Z" stroke="#E3D3C3" stroke-width="0.649778" stroke-miterlimit="10" stroke-linecap="round" stroke-linejoin="round"/>
<path d="M45.0195 56.6345C45.4362 57.9978 45.2816 59.2919 44.6743 59.5261C44.067 59.7596 43.2371 58.8445 42.8204 57.4812C42.4037 56.1179 42.875 54.4865 43.1063 54.3971C43.3388 54.3077 44.6028 55.2712 45.0195 56.6345Z" stroke="#E3D3C3" stroke-width="0.649778" stroke-miterlimit="10" stroke-linecap="round" stroke-linejoin="round"/>
<path d="M42.5796 57.344C42.2828 58.7135 41.5021 59.6999 40.8369 59.5468C40.1717 59.3938 39.873 58.1596 40.1705 56.7901C40.4679 55.4207 41.7015 54.3352 41.9551 54.3936C42.2087 54.452 42.877 55.9746 42.5796 57.344Z" stroke="#E3D3C3" stroke-width="0.649778" stroke-miterlimit="10" stroke-linecap="round" stroke-linejoin="round"/>
<circle cx="43" cy="43" r="42.5" stroke="#E3D3C3" stroke-dasharray="1 5"/>
</svg>
