<svg width="86" height="86" viewBox="0 0 86 86" fill="none" xmlns="http://www.w3.org/2000/svg">
<path d="M46.0076 20.1267H40.524V27.056H46.0076V20.1267Z" stroke="#E3D3C3" stroke-width="0.803129" stroke-miterlimit="10" stroke-linecap="round" stroke-linejoin="round"/>
<path d="M45.0807 17.1044H41.4498V20.1267H45.0807V17.1044Z" stroke="#E3D3C3" stroke-width="0.803129" stroke-miterlimit="10" stroke-linecap="round" stroke-linejoin="round"/>
<path d="M50.0979 56.4743C50.0979 55.2469 50.0979 42.5029 50.0979 37.3113C50.0979 32.1191 46.007 31.6473 46.007 30.6091C46.007 29.5709 46.007 27.0566 46.007 27.0566H43.2655H40.524C40.524 27.0566 40.524 29.5709 40.524 30.6091C40.524 31.6473 36.4331 32.1197 36.4331 37.3113C36.4331 42.5035 36.4331 55.2475 36.4331 56.4743C36.4331 58.0319 36.3381 58.8345 39.0904 58.8345C41.8421 58.8345 43.2655 58.8345 43.2655 58.8345C43.2655 58.8345 44.689 58.8345 47.4407 58.8345C50.193 58.8345 50.0979 58.0319 50.0979 56.4743ZM46.007 46.5125H40.9881V37.8041H46.007V46.5125Z" stroke="#E3D3C3" stroke-width="0.803129" stroke-miterlimit="10" stroke-linecap="round" stroke-linejoin="round"/>
<circle cx="43" cy="43" r="42.5" stroke="#E3D3C3" stroke-dasharray="1 5"/>
</svg>
