<svg width="95" height="96" viewBox="0 0 95 96" fill="none" xmlns="http://www.w3.org/2000/svg">
<ellipse cx="47.5" cy="48.1744" rx="47.5" ry="47.2526" fill="white"/>
<path opacity="0.901961" fill-rule="evenodd" clip-rule="evenodd" d="M32 64.1824V63.0503H34.2861V42.2336C32.9156 41.3914 32 39.8726 32 38.1463L32.0203 36.5718L33.8385 30.524H65.1087L66.9821 36.7374V38.1463C66.9821 39.8856 66.0519 41.4116 64.661 42.2546V63.0503H66.9472V64.1824H32ZM55.6748 46.0933V63.0504H63.5317H63.5455V42.765C63.1117 42.8893 62.6641 42.9587 62.1961 42.9587C60.3641 42.9587 58.7668 41.9229 57.9609 40.4041C57.1485 41.9229 55.5578 42.9587 53.7258 42.9587C51.8938 42.9587 50.2965 41.9229 49.4906 40.4105C48.6855 41.9228 47.0947 42.9587 45.2628 42.9587C43.4308 42.9587 41.8335 41.9229 41.0276 40.4041C40.2152 41.9229 38.6244 42.9587 36.7925 42.9587C36.318 42.9587 35.8565 42.8829 35.4154 42.7513V63.0504H43.2723V46.0933H55.6748ZM44.4024 63.0504H54.5455V47.2252H44.4024V63.0504ZM58.519 38.1463C58.519 40.1763 60.1643 41.8267 62.1888 41.8267C64.2069 41.8267 65.8528 40.1763 65.8528 38.1463V37.3042H58.519V38.1463ZM50.0488 38.1463C50.0488 40.1763 51.6947 41.8267 53.7193 41.8267C55.7438 41.8267 57.389 40.1763 57.389 38.1463V37.3042H50.0553H50.0488V38.1463ZM41.5858 38.1463C41.5858 40.1763 43.2317 41.8267 45.2563 41.8267C47.2808 41.8267 48.926 40.1763 48.926 38.1463V37.3042H41.5923H41.5858V38.1463ZM33.1293 38.1463C33.1293 40.1763 34.7752 41.8267 36.7925 41.8267C38.8171 41.8267 40.463 40.1763 40.463 38.1463V37.3042H33.1293L33.1293 38.1463ZM33.3218 36.1714H65.653L64.2759 31.6489H34.672L33.3218 36.1714ZM56.8041 57.9619H56.7968V52.3066H62.4366V57.9619H56.8041ZM57.9268 56.8297H61.3074V53.4393H57.9268V56.8297ZM36.5106 57.9619V52.3066H42.1504V57.9619H36.5106ZM37.6398 56.8297H41.0211V53.4393H37.6398V56.8297Z" fill="#B0A498"/>
</svg>
