<svg width="86" height="86" viewBox="0 0 86 86" fill="none" xmlns="http://www.w3.org/2000/svg">
<path d="M56.5179 39.2574C56.5179 39.2574 56.9532 39.9362 56.9014 41.077C56.8629 41.928 56.5748 42.5722 56.5748 42.5722L59.2233 42.5313C59.3111 42.9254 59.5164 43.2975 59.8468 43.5816C60.6644 44.2843 61.8995 44.195 62.6058 43.3817C63.3122 42.5684 63.2225 41.3397 62.4049 40.637C62.3696 40.6062 62.3291 40.5861 62.2925 40.5584C62.3253 40.5258 62.362 40.4994 62.3929 40.4642C63.0993 39.6509 63.0096 38.4221 62.192 37.7194C61.3745 37.0168 60.1393 37.106 59.433 37.9193C59.1184 38.2813 58.9705 38.7257 58.9655 39.1694L56.5179 39.2574Z" stroke="#E3D3C3" stroke-width="0.803129" stroke-miterlimit="10" stroke-linecap="round" stroke-linejoin="round"/>
<path d="M59.6465 40.8368C60.3529 40.0235 61.588 39.9342 62.4056 40.6369" stroke="#E3D3C3" stroke-width="0.803129" stroke-miterlimit="10" stroke-linecap="round"/>
<path d="M39.4414 51.1526C44.966 51.1526 49.4445 46.6974 49.4445 41.2015C49.4445 35.7057 44.966 31.2505 39.4414 31.2505C33.9168 31.2505 29.4382 35.7057 29.4382 41.2015C29.4382 46.6974 33.9168 51.1526 39.4414 51.1526Z" stroke="#E3D3C3" stroke-width="0.803129" stroke-miterlimit="10" stroke-linecap="round" stroke-linejoin="round"/>
<path d="M39.4414 31.2498C39.4414 31.2498 56.6576 30.7785 56.6576 41.2008C56.6576 51.6232 39.1785 51.1518 39.1785 51.1518" stroke="#E3D3C3" stroke-width="0.803129" stroke-miterlimit="10" stroke-linecap="round" stroke-linejoin="round"/>
<path d="M41.4947 40.2316H40.1521V38.896C40.1521 38.3612 39.7162 37.9269 39.1779 37.9269C38.6396 37.9269 38.2037 38.3605 38.2037 38.896V40.2316H36.8611C36.3235 40.2316 35.8869 40.6653 35.8869 41.2007C35.8869 41.7362 36.3228 42.1699 36.8611 42.1699H38.2037V43.5055C38.2037 44.0403 38.6396 44.4746 39.1779 44.4746C39.7162 44.4746 40.1521 44.0409 40.1521 43.5055V42.1699H41.4947C42.0323 42.1699 42.4689 41.7362 42.4689 41.2007C42.4689 40.6653 42.0329 40.2316 41.4947 40.2316Z" stroke="#E3D3C3" stroke-width="0.803129" stroke-miterlimit="10" stroke-linecap="round" stroke-linejoin="round"/>
<circle cx="43" cy="43" r="42.5" stroke="#E3D3C3" stroke-dasharray="1 5"/>
</svg>
