<svg width="86" height="86" viewBox="0 0 86 86" fill="none" xmlns="http://www.w3.org/2000/svg">
<path d="M39.2377 42.9625C40.0662 40.6203 42.235 38.9092 44.8305 38.7454C44.887 38.406 44.9236 38.0597 44.9236 37.7043C44.9236 34.2065 42.0731 31.3708 38.5571 31.3708C35.041 31.3708 32.1906 34.2065 32.1906 37.7043C32.1906 38.2085 32.2562 38.6961 32.3681 39.1666C32.6941 39.1152 33.0261 39.081 33.3667 39.081C36.009 39.081 38.2746 40.6824 39.2377 42.9625Z" stroke="#E3D3C3" stroke-width="0.803129" stroke-miterlimit="10"/>
<path d="M45.2386 38.7294C42.4634 38.7294 40.1095 40.4989 39.2379 42.9625C39.5564 43.7167 39.7334 44.5452 39.7334 45.4145C39.7334 46.152 39.6006 46.8564 39.3676 47.5147C40.3312 49.7948 42.5969 51.3962 45.2392 51.3962C48.7552 51.3962 51.6057 48.5606 51.6057 45.0628C51.6057 41.565 48.7552 38.7294 45.2386 38.7294Z" stroke="#E3D3C3" stroke-width="0.803129" stroke-miterlimit="10"/>
<path d="M33.3666 51.7477C36.8827 51.7477 39.7332 48.9121 39.7332 45.4143C39.7332 41.9165 36.8827 39.0809 33.3666 39.0809C29.8504 39.0809 27 41.9165 27 45.4143C27 48.9121 29.8504 51.7477 33.3666 51.7477Z" stroke="#E3D3C3" stroke-width="0.803129" stroke-miterlimit="10"/>
<path d="M33.6696 45.3673L32.5962 45.4969L32.3885 46.5524L31.9333 45.5772L30.86 45.7067L31.6514 44.9745L31.1963 43.9992L32.1405 44.5216L32.9325 43.7894L32.7248 44.8444L33.6696 45.3673Z" fill="#E3D3C3" stroke="#E3D3C3" stroke-width="0.803129" stroke-miterlimit="10" stroke-linecap="round" stroke-linejoin="round"/>
<path d="M46.0227 44.1405L45.1715 43.4774L44.2746 44.0773L44.6458 43.0674L43.7947 42.4042L44.875 42.4433L45.2457 41.4333L45.5427 42.4674L46.6226 42.5065L45.7257 43.1065L46.0227 44.1405Z" fill="#E3D3C3" stroke="#E3D3C3" stroke-width="0.803129" stroke-miterlimit="10" stroke-linecap="round" stroke-linejoin="round"/>
<path d="M38.6378 37.1664L37.7866 36.5033L36.8897 37.1032L37.261 36.0933L36.4098 35.4307L37.4902 35.4693L37.8609 34.4594L38.1578 35.4934L39.2377 35.5324L38.3408 36.1324L38.6378 37.1664Z" fill="#E3D3C3" stroke="#E3D3C3" stroke-width="0.803129" stroke-miterlimit="10" stroke-linecap="round" stroke-linejoin="round"/>
<path d="M29.3038 47.8749C29.1537 47.6447 29.0225 47.4016 28.9127 47.1467" stroke="#E3D3C3" stroke-width="0.803129" stroke-miterlimit="10" stroke-linecap="round" stroke-linejoin="round"/>
<path d="M33.3666 50.0697C32.2991 50.0697 31.3124 49.7261 30.5118 49.1438" stroke="#E3D3C3" stroke-width="0.803129" stroke-miterlimit="10" stroke-linecap="round" stroke-linejoin="round"/>
<path d="M36.293 33.6222C36.5281 33.4793 36.7766 33.3562 37.0359 33.2545" stroke="#E3D3C3" stroke-width="0.803129" stroke-miterlimit="10" stroke-linecap="round" stroke-linejoin="round"/>
<path d="M33.9692 37.5984C34.0004 36.5371 34.3744 35.5656 34.9823 34.7864" stroke="#E3D3C3" stroke-width="0.803129" stroke-miterlimit="10" stroke-linecap="round" stroke-linejoin="round"/>
<path d="M43.7032 49.465C43.4434 49.3734 43.1906 49.26 42.9474 49.124" stroke="#E3D3C3" stroke-width="0.803129" stroke-miterlimit="10" stroke-linecap="round" stroke-linejoin="round"/>
<path d="M48.2697 48.7451C47.4228 49.3916 46.4296 49.717 45.4385 49.74" stroke="#E3D3C3" stroke-width="0.803129" stroke-miterlimit="10" stroke-linecap="round" stroke-linejoin="round"/>
<path d="M43.9788 34.3827C43.9788 34.3827 43.9476 31.3089 47.8484 28.9004C47.8484 28.9004 52.9302 34.7269 48.8427 39.842" stroke="#E3D3C3" stroke-width="0.803129" stroke-miterlimit="10" stroke-linecap="round" stroke-linejoin="round"/>
<path d="M50.0214 37.7724C50.0214 37.7724 53.8678 36.0591 57.9703 38.1331C57.9703 38.1331 56.707 44.1876 51.6053 44.4552" stroke="#E3D3C3" stroke-width="0.803129" stroke-miterlimit="10" stroke-linecap="round" stroke-linejoin="round"/>
<circle cx="43" cy="43" r="42.5" stroke="#E3D3C3" stroke-dasharray="1 5"/>
</svg>
