<svg width="95" height="96" viewBox="0 0 95 96" fill="none" xmlns="http://www.w3.org/2000/svg">
<ellipse cx="47.5" cy="48.1744" rx="47.5" ry="47.2526" fill="white"/>
<path opacity="0.901961" fill-rule="evenodd" clip-rule="evenodd" d="M55.0882 53.9637C55.0882 55.3416 53.9766 56.4082 52.6426 56.4082H51.8868V64.5867H50.6862V55.2526H52.6426C53.3541 55.2526 53.932 54.675 53.932 53.9637V43.2516C53.932 42.5404 53.3541 41.9624 52.6426 41.9624H44.4612C43.7497 41.9624 43.1716 42.5404 43.1716 43.2516V53.9637C43.1716 54.675 43.7497 55.2526 44.4612 55.2526H46.2841V64.5867H45.0837V56.4527H44.4167C43.0383 56.4527 41.9711 55.3416 41.9711 54.0078V43.2516C41.9711 41.8736 43.0827 40.8068 44.4167 40.8068H52.5982C53.9766 40.8068 55.0437 41.9182 55.0437 43.2516V53.9637L55.0882 53.9637ZM43.7941 33.9618C43.7941 31.3394 45.9284 29.2502 48.5074 29.2502C51.0863 29.2502 53.2206 31.3837 53.2206 33.9618C53.2206 36.5399 51.0863 38.6733 48.5074 38.6733C45.9284 38.6733 43.7941 36.5844 43.7941 33.9618ZM44.9946 33.9619C44.9946 35.9175 46.5954 37.5177 48.5518 37.5177C50.5084 37.5177 52.109 35.9175 52.109 33.9619C52.109 32.0062 50.5084 30.4062 48.5518 30.4062C46.5955 30.4505 44.9946 32.0062 44.9946 33.9619ZM40.4593 64.5867H41.6599V57.7863H42.1933V56.5861H40.4593V64.5867ZM34.2787 55.6082V46.5407C34.2787 46.0073 34.7233 45.5628 35.2569 45.5628H40.6371V44.3628H35.3014C34.1009 44.3628 33.1226 45.3406 33.1226 46.5407V55.6082C33.1226 56.8085 34.1009 57.7862 35.3014 57.7862H35.746V64.5867H36.9466V56.586H35.3014C34.7233 56.586 34.2787 56.1416 34.2787 55.6082ZM34.6344 38.6733C34.6344 36.4066 36.4574 34.5842 38.7252 34.5842C40.9929 34.5842 42.8159 36.4066 42.8159 38.6733C42.8159 40.9403 40.9929 42.7623 38.7252 42.7623C36.4574 42.7623 34.6344 40.9403 34.6344 38.6733ZM35.835 38.6733C35.835 40.2736 37.1244 41.5626 38.7251 41.5626C40.3259 41.5626 41.6154 40.2736 41.6154 38.6733C41.6154 37.073 40.3259 35.7842 38.7251 35.7842C37.1244 35.7842 35.835 37.073 35.835 38.6733ZM54.8214 57.7863H55.3549V64.5867H56.5555V56.5861H54.8214V57.7863ZM61.7134 44.3628H56.3776V45.5628H61.7578C62.2914 45.5628 62.736 46.0073 62.736 46.5407V55.6082C62.736 56.1416 62.2914 56.586 61.7578 56.586H60.0682V64.5867H61.2687V57.7862H61.7134C62.914 57.7862 63.8921 56.8085 63.8921 55.6082V46.5407C63.8921 45.3406 62.9139 44.3628 61.7134 44.3628ZM54.1989 38.6733C54.1989 36.4066 56.0219 34.5842 58.2897 34.5842C60.5573 34.5842 62.3804 36.4066 62.3804 38.6733C62.3804 40.9403 60.5573 42.7623 58.2897 42.7623C56.0219 42.7623 54.1989 40.9403 54.1989 38.6733ZM55.3549 38.6734C55.3549 40.2737 56.6445 41.5626 58.2453 41.5626C59.8459 41.5626 61.1354 40.2737 61.1354 38.6734C61.1354 37.073 59.8459 35.7843 58.2453 35.7843C56.6889 35.74 55.3549 37.073 55.3549 38.6734Z" fill="#B0A498"/>
</svg>
