<svg width="95" height="96" viewBox="0 0 95 96" fill="none" xmlns="http://www.w3.org/2000/svg">
<ellipse cx="47.5" cy="48.1744" rx="47.5" ry="47.2526" fill="white"/>
<path fill-rule="evenodd" clip-rule="evenodd" d="M41.2833 31.8474C40.9084 31.8474 40.6043 32.151 40.6043 32.5255V36.6799C39.4351 36.9821 38.5674 38.0504 38.5674 39.3083C38.5674 40.7986 39.7915 42.0215 41.2833 42.0215C42.7753 42.0215 43.9993 40.7986 43.9993 39.3083C43.9993 38.053 43.1278 36.9956 41.9623 36.6906V32.5255C41.9623 32.151 41.6584 31.8474 41.2833 31.8474V31.8474ZM54.8629 31.8474C54.4879 31.8474 54.1839 32.151 54.1839 32.5255V36.6799C53.0147 36.9821 52.147 38.0504 52.147 39.3083C52.147 40.7986 53.3709 42.0215 54.8629 42.0215C56.3548 42.0215 57.5787 40.7986 57.5787 39.3083C57.5787 38.053 56.7073 36.9956 55.5419 36.6906V32.5255C55.5419 32.151 55.2379 31.8474 54.8629 31.8474L54.8629 31.8474ZM36.5305 33.882C34.6561 33.882 33.125 35.4117 33.125 37.284V58.9679C33.125 60.8406 34.6561 62.3699 36.5305 62.3699H59.5945C61.4689 62.3699 63 60.8403 63 58.9679V37.284C63 35.4117 61.4689 33.882 59.5945 33.882H57.5682C57.2095 33.8772 56.8786 34.202 56.8786 34.5602C56.8786 34.9187 57.2095 35.2436 57.5682 35.2387H59.5945C60.7388 35.2387 61.6421 36.141 61.6421 37.284V43.3782H34.4829V37.284C34.4829 36.141 35.3862 35.2387 36.5305 35.2387H38.5568C38.9155 35.2436 39.2464 34.9187 39.2464 34.5602C39.2464 34.202 38.9155 33.8772 38.5568 33.882H36.5305H36.5305ZM43.9886 33.882C43.6137 33.882 43.3097 34.1856 43.3097 34.5602C43.3097 34.9352 43.6137 35.2388 43.9886 35.2388H52.1364C52.5113 35.2388 52.8153 34.9352 52.8153 34.5602C52.8153 34.1856 52.5113 33.882 52.1364 33.882H43.9886ZM41.2833 37.9519C42.0414 37.9519 42.6414 38.5511 42.6414 39.3084C42.6414 40.0656 42.0414 40.6652 41.2833 40.6652C40.5254 40.6652 39.9254 40.0656 39.9254 39.3084C39.9254 38.5511 40.5254 37.9519 41.2833 37.9519ZM54.8629 37.9519C55.6209 37.9519 56.2208 38.5511 56.2208 39.3084C56.2208 40.0656 55.6209 40.6652 54.8629 40.6652C54.1048 40.6652 53.5049 40.0656 53.5049 39.3084C53.5049 38.5511 54.1048 37.9519 54.8629 37.9519ZM34.4829 44.7346H61.6421V58.9679C61.6421 60.1109 60.7387 61.0134 59.5945 61.0134H36.5305C35.3862 61.0134 34.4829 60.1109 34.4829 58.9679V44.7346H34.4829Z" fill="#B0A498"/>
</svg>
