<svg height="162" viewBox="0 0 70.156 81" width="140.312" xmlns="http://www.w3.org/2000/svg"><path d="m844.212 2421.65a5.569 5.569 0 0 1 -5.575 5.6h-1.723v18.75h-2.737v-21.4h4.46a2.946 2.946 0 0 0 2.94-2.95v-24.55a2.954 2.954 0 0 0 -2.94-2.96h-18.651a2.954 2.954 0 0 0 -2.94 2.96v24.55a2.946 2.946 0 0 0 2.94 2.95h4.156v21.4h-2.737v-18.65h-1.52a5.568 5.568 0 0 1 -5.576-5.6v-24.65a5.57 5.57 0 0 1 5.576-5.6h18.651a5.568 5.568 0 0 1 5.575 5.6v24.55h.1zm-25.747-45.84a10.745 10.745 0 1 1 10.745 10.8 10.779 10.779 0 0 1 -10.745-10.8zm2.737 0a8.11 8.11 0 1 0 8.11-8.15 8.156 8.156 0 0 0 -8.112 8.15zm-10.339 70.19h2.737v-15.59h1.216v-2.75h-3.953zm-14.09-20.58v-20.78a2.25 2.25 0 0 1 2.23-2.24h12.265v-2.75h-12.163a4.986 4.986 0 0 0 -4.967 4.99v20.78a4.986 4.986 0 0 0 4.967 4.99h1.013v15.59h2.737v-18.34h-3.75a2.279 2.279 0 0 1 -2.332-2.24zm.811-38.81a9.326 9.326 0 1 1 9.326 9.37 9.328 9.328 0 0 1 -9.326-9.37zm2.737 0a6.589 6.589 0 1 0 6.589-6.63 6.6 6.6 0 0 0 -6.589 6.63zm43.283 43.8h1.217v15.59h2.737v-18.34h-3.958v2.75zm15.712-30.76h-12.164v2.75h12.265a2.249 2.249 0 0 1 2.23 2.24v20.78a2.256 2.256 0 0 1 -2.23 2.24h-3.852v18.34h2.735v-15.59h1.014a4.986 4.986 0 0 0 4.967-4.99v-20.78a4.986 4.986 0 0 0 -4.965-4.99zm-17.131-13.04a9.326 9.326 0 1 1 9.326 9.37 9.328 9.328 0 0 1 -9.326-9.37zm2.636 0a6.589 6.589 0 1 0 6.588-6.63 6.595 6.595 0 0 0 -6.588 6.63z" fill="#5c4b5c" fill-rule="evenodd" opacity=".9" transform="translate(-794.125 -2365)"/></svg>