<svg height="32" viewBox="0 0 42 32" width="42" xmlns="http://www.w3.org/2000/svg"><path d="m1267.91 883h-29.41a2.085 2.085 0 0 0 -2.1 2.068v10.341h-6.3a2.085 2.085 0 0 0 -2.1 2.068v12.409a2.086 2.086 0 0 0 2.1 2.069v3.045l3.09-3.045h15.12a2.086 2.086 0 0 0 2.1-2.069v-2.068h8.1l5.89 5.8v-5.8h3.5a2.085 2.085 0 0 0 2.1-2.068v-20.682a2.077 2.077 0 0 0 -2.09-2.068zm-18.91 26.886a.693.693 0 0 1 -.7.692h-15.69l-1.1 1.092v-1.092h-1.41a.693.693 0 0 1 -.7-.692v-12.409a.693.693 0 0 1 .7-.692h6.3v8.965a2.085 2.085 0 0 0 2.1 2.068h10.5zm19.61-4.136a.693.693 0 0 1 -.7.692h-4.91v3.851l-3.91-3.851h-20.59a.693.693 0 0 1 -.7-.692v-20.682a.694.694 0 0 1 .7-.692h29.41a.694.694 0 0 1 .7.692zm-25.2-16.545h19.6v1.376h-19.6zm-2.1 5.512h23.8v1.376h-23.8zm2.1 5.521h10.5v1.376h-10.5zm14.7 0h7v1.376h-7z" fill="#5c4b5c" fill-rule="evenodd" transform="translate(-1228 -883)"/></svg>