<svg width="21" height="17" viewBox="0 0 21 17" fill="none" xmlns="http://www.w3.org/2000/svg">
<path fill-rule="evenodd" clip-rule="evenodd" d="M18.5542 0.802395C19.4498 1.06433 20.155 1.83548 20.3944 2.8148C20.8293 4.58873 20.8293 8.2915 20.8293 8.2915C20.8293 8.2915 20.8293 11.9948 20.3944 13.7682C20.155 14.748 19.4498 15.5192 18.5542 15.7811C16.9311 16.2561 10.4226 16.2561 10.4226 16.2561C10.4226 16.2561 3.91364 16.2561 2.29057 15.7811C1.39479 15.5192 0.689735 14.748 0.450377 13.7682C0.0153809 11.9948 0.0153809 8.2915 0.0153809 8.2915C0.0153809 8.2915 0.0153809 4.58873 0.450377 2.8148C0.689735 1.83548 1.39479 1.06433 2.29057 0.802395C3.91364 0.327393 10.4226 0.327393 10.4226 0.327393C10.4226 0.327393 16.9311 0.327393 18.5542 0.802395ZM8.29364 4.93066V11.6536L13.7336 8.29187L8.29364 4.93066Z" fill="#383432"/>
</svg>
