<svg height="39" viewBox="0 0 39 39" width="39" xmlns="http://www.w3.org/2000/svg"><path d="m858.349 884.547h-7.671v10.064h7.671zm-1.28 8.8h-5.111v-7.546h5.111zm3.831-8.8h8.951v1.259h-8.951zm0 4.406h8.951v1.259h-8.951zm0 4.4h8.951v1.259h-8.951zm-10.23 4.407h19.181v1.259h-19.181zm0 4.4h14.709v1.259h-14.709zm0 7.554h8.951v1.26h-8.951zm30.394-15.438a3.269 3.269 0 0 0 -4.518 0l-2.856 2.809v-16.308h-3.839v-3.777h-26.851v35.223h3.839v3.777h26.851v-10.019l7.374-7.255a3.115 3.115 0 0 0 0-4.452zm-34.225 16.7h-2.559v-32.717h24.3v2.518h-21.74v30.195zm25.571 3.769h-24.291v-32.716h24.291v16.314l-10.472 10.3-1.131 5.558 5.649-1.113 5.946-5.857v7.508h.008zm-8.974-5.789 1.811-1.781 2.715 2.672-1.818 1.781zm1.413 3.171-2.411.476.483-2.372zm4.01-3.171-2.715-2.671 10.846-10.685 2.716 2.671zm11.674-11.646-2.544-2.5a1.98 1.98 0 0 1 2.169.361 1.848 1.848 0 0 1 .375 2.135zm-7.153 5.42-.9-.89 4.519-4.446.9.89z" fill="#675767" fill-rule="evenodd" transform="translate(-843 -877)"/></svg>