<svg height="77.12" viewBox="0 0 79.75 77.12" width="79.75" xmlns="http://www.w3.org/2000/svg"><path d="m583.546 2430.81h12.841v-12.96h-12.857v12.96zm2.558-10.36h7.708v7.77h-7.712v-7.77zm-48.822 10.36h12.857v-12.96h-12.857zm2.575-10.36h7.708v7.77h-7.708zm66.891-35.05v-3.23l-4.27-14.24h-71.287l-4.144 13.86-.047 3.61a11.017 11.017 0 0 0 5.212 9.37v47.71h-5.212v2.59h79.669v-2.59h-5.212v-47.67a11 11 0 0 0 5.291-9.41zm-10.926 8.43a8.406 8.406 0 0 1 -8.368-8.43v-1.93h16.719v1.93a8.4 8.4 0 0 1 -8.351 8.43zm-46.954-10.36h16.719v1.93a8.368 8.368 0 1 1 -16.735 0v-1.93zm19.293 0h16.719v1.93a8.368 8.368 0 1 1 -16.735 0v-1.93zm-35.07-12.96h67.487l3.14 10.36h-73.7zm-3.516 14.89v-1.93h16.718v1.93a8.359 8.359 0 1 1 -16.718 0zm25.7 57.08v-36.27h23.125v36.27h-23.127zm43.61 0h-17.914v-38.87h-28.271v38.87h-17.914v-46.53a10.809 10.809 0 0 0 12.8-5.38 10.878 10.878 0 0 0 19.293.02 10.892 10.892 0 0 0 19.309-.02 10.856 10.856 0 0 0 12.731 5.41v46.5h-.031z" fill="#5c4b5c" fill-rule="evenodd" opacity=".9" transform="translate(-527 -2367.94)"/></svg>