<svg width="11" height="19" viewBox="0 0 11 19" fill="none" xmlns="http://www.w3.org/2000/svg">
<path d="M2.7186 3.74C2.7186 4.1984 2.7186 6.24709 2.7186 6.24709H0.65387V9.31438H2.7186V18.4275H6.96065V9.31438H9.80735C9.80735 9.31438 10.0739 7.84417 10.203 6.23612C9.83263 6.23612 6.97669 6.23612 6.97669 6.23612C6.97669 6.23612 6.97669 4.45266 6.97669 4.1394C6.97669 3.82667 7.43935 3.40377 7.8964 3.40377C8.35264 3.40377 9.31567 3.40377 10.2077 3.40377C10.2077 2.98662 10.2077 1.5446 10.2077 0.211182C9.01682 0.211182 7.66253 0.211182 7.06521 0.211182C2.61376 0.211182 2.7186 3.28108 2.7186 3.74Z" fill="#383432"/>
</svg>
