<svg height="38" viewBox="0 0 28 38" width="28" xmlns="http://www.w3.org/2000/svg"><path d="m1049.26 877.012a13.861 13.861 0 0 0 -13.26 13.3 13.4 13.4 0 0 0 4.78 10.357 7.4 7.4 0 0 1 2.81 5.638 1.737 1.737 0 0 0 -.64 1.348 1.79 1.79 0 0 0 .89 1.532 2.06 2.06 0 0 0 -.25.919 1.843 1.843 0 0 0 1.91 1.839h.7a3.845 3.845 0 0 0 7.53 0h.7a1.843 1.843 0 0 0 1.91-1.839 2.631 2.631 0 0 0 -.25-.919 1.871 1.871 0 0 0 .89-1.532 1.737 1.737 0 0 0 -.64-1.348 7.77 7.77 0 0 1 2.81-5.638 13.284 13.284 0 0 0 4.84-10.174c.07-7.661-6.63-13.912-14.73-13.483zm.77 36.77a2.592 2.592 0 0 1 -2.49-1.838h4.91a2.446 2.446 0 0 1 -2.42 1.838zm4.46-3.064h-8.93a.613.613 0 1 1 0-1.226h8.93a.614.614 0 1 1 0 1.226zm.64-2.451h-10.2a.614.614 0 1 1 0-1.226h10.2a.614.614 0 1 1 0 1.226zm3.25-8.519a8.949 8.949 0 0 0 -3.25 6.067h-10.2a8.8 8.8 0 0 0 -3.26-6.067 12.4 12.4 0 0 1 -4.4-9.437 12.587 12.587 0 0 1 12.06-12.073c7.33-.368 13.45 5.27 13.45 12.256a11.994 11.994 0 0 1 -4.4 9.254zm-19.19-9.254h1.27a9.378 9.378 0 0 1 9.57-9.192v-1.226a10.623 10.623 0 0 0 -10.84 10.418z" fill="#5c4b5c" fill-rule="evenodd" transform="translate(-1036 -877)"/></svg>