<svg height="39" viewBox="0 0 28 39" width="28" xmlns="http://www.w3.org/2000/svg"><path d="m681.816 877h-21.632a3.17 3.17 0 0 0 -3.184 3.148v32.7a3.171 3.171 0 0 0 3.184 3.152h21.632a3.171 3.171 0 0 0 3.184-3.148v-32.7a3.17 3.17 0 0 0 -3.184-3.152zm1.91 35.852a1.9 1.9 0 0 1 -1.91 1.889h-21.632a1.9 1.9 0 0 1 -1.911-1.889v-32.7a1.9 1.9 0 0 1 1.911-1.889h21.632a1.9 1.9 0 0 1 1.91 1.889zm-22.906-23.269h20.36v-8.806h-20.36zm1.274-7.555h17.812v6.288h-17.812zm3.82 10.065h-5.086v5.029h5.086zm-1.273 3.778h-2.547v-2.519h2.547zm3.812 1.259h5.086v-5.03h-5.086v5.029zm1.273-3.778h2.547v2.519h-2.547zm6.36 3.778h5.086v-5.03h-5.086v5.029zm1.273-3.778h2.547v2.519h-2.547zm-11.445 6.3h-5.086v5.028h5.086zm-1.273 3.769h-2.547v-2.521h2.547v2.518zm3.812 1.259h5.086v-5.028h-5.086zm1.273-3.769h2.547v2.518h-2.547zm6.36 11.316h5.086v-12.579h-5.086v12.575zm1.273-11.316h2.547v10.065h-2.547v-10.069zm-16.539 11.312h12.727v-5.029h-12.727zm1.274-3.77h10.179v2.519h-10.179z" fill="#5c4b5c" fill-rule="evenodd" transform="translate(-657 -877)"/></svg>