<svg width="15" height="19" viewBox="0 0 15 19" fill="none" xmlns="http://www.w3.org/2000/svg">
<path fill-rule="evenodd" clip-rule="evenodd" d="M7.5 0C5.42651 0 3.74991 1.8228 3.74991 4.0716V6.0843H0.44119C0.19848 6.0843 0 6.2971 0 6.5578V15.6845C0 17.5069 1.38971 18.9983 3.0882 18.9983H11.9118C13.6102 18.9983 14.9999 17.5069 14.9999 15.6845V6.5578C14.9999 6.2971 14.8015 6.0843 14.5588 6.0843H11.25V4.0716C11.25 1.8228 9.57361 0 7.5 0ZM4.63239 4.0716C4.63239 2.3435 5.91181 0.947 7.5 0.947C9.08829 0.947 10.3676 2.3435 10.3676 4.0716V6.0843H4.63238L4.63239 4.0716ZM14.1176 7.0549V15.7077C14.1176 17.0098 13.1249 18.0752 11.9118 18.0752H3.08819C1.87499 18.0752 0.88229 17.0098 0.88229 15.7077V7.0549H3.7499V8.5223C3.7499 8.783 3.94848 8.9958 4.19118 8.9958C4.43389 8.9958 4.63237 8.783 4.63237 8.5223V7.0549H10.3676V8.5223C10.3676 8.783 10.5662 8.9958 10.8088 8.9958C11.0515 8.9958 11.25 8.783 11.25 8.5223V7.0549H14.1176Z" fill="white"/>
</svg>
