<svg width="17" height="17" viewBox="0 0 17 17" fill="none" xmlns="http://www.w3.org/2000/svg">
<path fill-rule="evenodd" clip-rule="evenodd" d="M4.17163 2.07725C4.17163 3.05459 3.45659 3.84546 2.28011 3.84546C1.17357 3.84546 0.458618 3.05459 0.458618 2.07725C0.458618 1.07648 1.19671 0.308105 2.3265 0.308105C3.45659 0.308105 4.14888 1.07648 4.17163 2.07725ZM0.550903 16.625V5.24146H4.05664V16.625H0.550903ZM6.06287 5.24189C6.10867 6.26701 6.15459 7.45424 6.15459 8.87384V16.625H9.6605V10.0611C9.6605 9.73498 9.68355 9.40889 9.77604 9.17744C10.0298 8.52433 10.606 7.84966 11.5746 7.84966C12.8432 7.84966 13.3506 8.85042 13.3506 10.3169V16.625H16.8564V9.89802C16.8564 6.54625 15.1267 4.98608 12.8204 4.98608C10.9291 4.98608 9.79891 6.08054 9.33764 6.82548H9.2687L9.10675 5.24189H6.06287Z" fill="#383432"/>
</svg>
