<svg width="19" height="20" viewBox="0 0 19 20" fill="none" xmlns="http://www.w3.org/2000/svg">
<path fill-rule="evenodd" clip-rule="evenodd" d="M5.10051 0.0651855H13.3669C16.1742 0.0651855 18.458 2.43646 18.4578 5.3531V13.9384C18.4578 16.8539 16.1742 19.2263 13.3669 19.2263H5.10051C2.29325 19.2263 0.00952148 16.8539 0.00952148 13.9384V5.3531C0.00952148 2.43646 2.29325 0.0651855 5.10051 0.0651855ZM13.3669 17.5264C15.2714 17.5264 16.8212 15.9172 16.8212 13.9387H16.8211V5.35344C16.8211 3.37555 15.2714 1.76636 13.3669 1.76636H5.10047C3.19577 1.76636 1.64612 3.37555 1.64612 5.35344V13.9387C1.64612 15.9172 3.19577 17.5275 5.10047 17.5264H13.3669ZM4.48022 9.64609C4.48022 6.92315 6.61269 4.70825 9.23409 4.70825C11.8553 4.70825 13.9877 6.92315 13.9877 9.64609C13.9877 12.3679 11.8553 14.5823 9.23409 14.5823C6.61269 14.5823 4.48022 12.3679 4.48022 9.64609ZM6.11707 9.64536C6.11707 11.4312 7.51532 12.8823 9.23402 12.8823C10.9524 12.8823 12.3508 11.4312 12.3508 9.64536C12.3508 7.86063 10.9527 6.40894 9.23402 6.40894C7.51532 6.40894 6.11707 7.86063 6.11707 9.64536ZM13.3392 3.63121C13.5617 3.39968 13.8717 3.26636 14.187 3.26636C14.5035 3.26636 14.8133 3.39968 15.036 3.63121C15.2598 3.86273 15.3873 4.18534 15.3873 4.51343C15.3873 4.84152 15.2598 5.16248 15.036 5.39565C14.8124 5.62718 14.5035 5.7605 14.187 5.7605C13.8717 5.7605 13.5617 5.62718 13.3392 5.39565C13.1154 5.16248 12.9866 4.84152 12.9866 4.51343C12.9866 4.18534 13.1154 3.86273 13.3392 3.63121Z" fill="#383432"/>
</svg>
